<svg width="18" height="13" viewBox="0 0 18 13" fill="none" xmlns="http://www.w3.org/2000/svg">
<path fill-rule="evenodd" clip-rule="evenodd" d="M0.25 1.9375C0.25 1.07417 0.95 0.375 1.8125 0.375H6.8125C7.67583 0.375 8.375 1.075 8.375 1.9375V5.0625C8.375 5.92583 7.675 6.625 6.8125 6.625H1.8125C1.3981 6.625 1.00067 6.46038 0.707646 6.16735C0.41462 5.87433 0.25 5.4769 0.25 5.0625V1.9375ZM10.25 3.1875C10.25 2.32417 10.95 1.625 11.8125 1.625H16.1875C17.05 1.625 17.75 2.325 17.75 3.1875V10.0625C17.75 10.925 17.05 11.625 16.1875 11.625H11.8125C11.3981 11.625 11.0007 11.4604 10.7076 11.1674C10.4146 10.8743 10.25 10.4769 10.25 10.0625V3.1875ZM1.5 9.4375C1.5 8.57417 2.2 7.875 3.0625 7.875H7.4375C8.30083 7.875 9 8.575 9 9.4375V11.3125C9 12.175 8.3 12.875 7.4375 12.875H3.0625C2.6481 12.875 2.25067 12.7104 1.95765 12.4174C1.66462 12.1243 1.5 11.7269 1.5 11.3125V9.4375Z" fill="black"/>
</svg>
